<svg width="304" height="45" viewBox="0 0 304 45" fill="none" xmlns="http://www.w3.org/2000/svg">
<rect x="0.552697" y="1.55282" width="147.109" height="42.8152" rx="4.94022" fill="black"/>
<rect x="0.552697" y="1.55282" width="147.109" height="42.8152" rx="4.94022" stroke="#A6A6A6" stroke-width="1.09783"/>
<path d="M74.8053 24.8829C72.2232 24.8829 70.1186 26.8469 70.1186 29.552C70.1186 32.2406 72.2232 34.221 74.8053 34.221C77.3884 34.221 79.493 32.2406 79.493 29.552C79.4919 26.8469 77.3873 24.8829 74.8053 24.8829ZM74.8053 32.3833C73.3902 32.3833 72.1705 31.2163 72.1705 29.5531C72.1705 27.8723 73.3913 26.7229 74.8053 26.7229C76.2204 26.7229 77.44 27.8723 77.44 29.5531C77.44 31.2152 76.2204 32.3833 74.8053 32.3833ZM64.5801 24.8829C61.998 24.8829 59.8935 26.8469 59.8935 29.552C59.8935 32.2406 61.998 34.221 64.5801 34.221C67.1633 34.221 69.2678 32.2406 69.2678 29.552C69.2678 26.8469 67.1633 24.8829 64.5801 24.8829ZM64.5801 32.3833C63.165 32.3833 61.9453 31.2163 61.9453 29.5531C61.9453 27.8723 63.1661 26.7229 64.5801 26.7229C65.9952 26.7229 67.2149 27.8723 67.2149 29.5531C67.216 31.2152 65.9952 32.3833 64.5801 32.3833ZM52.4184 26.3167V28.2972H57.1588C57.0172 29.4115 56.6461 30.2249 56.0796 30.7903C55.3902 31.4798 54.311 32.2406 52.4184 32.2406C49.5004 32.2406 47.2191 29.8879 47.2191 26.9699C47.2191 24.0519 49.5004 21.6992 52.4184 21.6992C53.9927 21.6992 55.1421 22.3184 55.9907 23.1143L57.3882 21.7168C56.2026 20.5849 54.6294 19.7188 52.4184 19.7188C48.4212 19.7188 45.0608 22.9727 45.0608 26.9699C45.0608 30.9671 48.4212 34.221 52.4184 34.221C54.5756 34.221 56.2037 33.5129 57.4761 32.1868C58.7847 30.8782 59.192 29.0382 59.192 27.5528C59.192 27.0939 59.1568 26.6691 59.0855 26.3156H52.4184V26.3167ZM102.159 27.8547C101.77 26.8118 100.584 24.8829 98.1615 24.8829C95.7562 24.8829 93.757 26.7756 93.757 29.552C93.757 32.1692 95.7386 34.221 98.391 34.221C100.531 34.221 101.769 32.9124 102.283 32.1516L100.691 31.09C100.161 31.8684 99.435 32.3811 98.391 32.3811C97.348 32.3811 96.6048 31.9035 96.1272 30.966L102.371 28.3839L102.159 27.8547ZM95.7913 29.4115C95.7386 27.6066 97.1888 26.6878 98.2329 26.6878C99.0464 26.6878 99.7358 27.095 99.9663 27.678L95.7913 29.4115ZM90.716 33.9389H92.7668V20.215H90.716V33.9389ZM87.3545 25.927H87.2842C86.8243 25.378 85.9394 24.8829 84.8262 24.8829C82.4911 24.8829 80.3515 26.9348 80.3515 29.5706C80.3515 32.1879 82.4911 34.2221 84.8262 34.2221C85.9405 34.2221 86.8243 33.727 87.2842 33.1616H87.3545V33.8335C87.3545 35.6197 86.3994 36.5748 84.8613 36.5748C83.6054 36.5748 82.8271 35.6735 82.5087 34.9127L80.7225 35.6559C81.2352 36.8931 82.5965 38.4147 84.8613 38.4147C87.2667 38.4147 89.3009 36.9996 89.3009 33.5503V25.1673H87.3556V25.927H87.3545ZM85.003 32.3833C83.5879 32.3833 82.4033 31.1976 82.4033 29.5706C82.4033 27.925 83.5879 26.7229 85.003 26.7229C86.3994 26.7229 87.4961 27.925 87.4961 29.5706C87.4961 31.1976 86.3994 32.3833 85.003 32.3833ZM111.769 20.215H106.861V33.9389H108.908V28.7396H111.768C114.038 28.7396 116.271 27.0961 116.271 24.4778C116.271 21.8595 114.039 20.215 111.769 20.215ZM111.822 26.8294H108.908V22.1252H111.822C113.353 22.1252 114.223 23.3932 114.223 24.4778C114.223 25.5405 113.353 26.8294 111.822 26.8294ZM124.482 24.8588C122.999 24.8588 121.463 25.512 120.827 26.96L122.645 27.7186C123.034 26.96 123.758 26.7119 124.517 26.7119C125.576 26.7119 126.653 27.3475 126.671 28.4772V28.6188C126.3 28.4069 125.505 28.0897 124.535 28.0897C122.575 28.0897 120.579 29.1666 120.579 31.179C120.579 33.0156 122.186 34.198 123.987 34.198C125.363 34.198 126.123 33.5799 126.6 32.8553H126.67V33.9147H128.648V28.6529C128.649 26.2179 126.829 24.8588 124.482 24.8588ZM124.234 32.38C123.564 32.38 122.628 32.044 122.628 31.2141C122.628 30.1547 123.794 29.7485 124.8 29.7485C125.699 29.7485 126.124 29.9428 126.671 30.2074C126.512 31.4798 125.417 32.38 124.234 32.38ZM135.852 25.1585L133.504 31.1087H133.434L130.996 25.1585H128.79L132.444 33.4745L130.361 38.1007H132.497L138.13 25.1585H135.852ZM117.402 33.9389H119.449V20.215H117.402V33.9389Z" fill="white"/>
<path d="M52.0606 12.2494C52.0606 13.1694 51.7883 13.9016 51.2427 14.4484C50.6235 15.0983 49.8155 15.4232 48.8231 15.4232C47.8724 15.4232 47.0633 15.0939 46.3991 14.4352C45.7338 13.7754 45.4011 12.9586 45.4011 11.9837C45.4011 11.0078 45.7338 10.191 46.3991 9.5323C47.0633 8.87251 47.8724 8.54316 48.8231 8.54316C49.2951 8.54316 49.7463 8.63538 50.1745 8.81871C50.6037 9.00315 50.9474 9.24796 51.2043 9.55426L50.6257 10.1339C50.1899 9.61244 49.5893 9.35226 48.822 9.35226C48.1281 9.35226 47.5287 9.59598 47.0226 10.0834C46.5165 10.5708 46.264 11.2043 46.264 11.9826C46.264 12.761 46.5165 13.3945 47.0226 13.8819C47.5287 14.3693 48.1281 14.613 48.822 14.613C49.5575 14.613 50.1712 14.3682 50.6619 13.8775C50.9803 13.558 51.1647 13.1134 51.2141 12.5436H48.822V11.7521H52.0134C52.0463 11.9245 52.0606 12.0902 52.0606 12.2494Z" fill="white"/>
<path d="M57.1216 9.49833H54.1224V11.5864H56.8274V12.3779H54.1224V14.466H57.1216V15.2762H53.276V8.68923H57.1216V9.49833Z" fill="white"/>
<path d="M60.6905 15.2762H59.8441V9.49833H58.0042V8.68923H62.5305V9.49833H60.6905V15.2762Z" fill="white"/>
<path d="M65.8053 15.2762V8.68923H66.6517V15.2762H65.8053Z" fill="white"/>
<path d="M70.4053 15.2762H69.5589V9.49833H67.719V8.68923H72.2453V9.49833H70.4053V15.2762Z" fill="white"/>
<path d="M80.8136 14.4254C80.1659 15.0906 79.3612 15.4233 78.3984 15.4233C77.4356 15.4233 76.6309 15.0906 75.9842 14.4254C75.3365 13.7601 75.0138 12.9455 75.0138 11.9827C75.0138 11.0199 75.3365 10.2053 75.9842 9.54004C76.6309 8.87475 77.4356 8.54102 78.3984 8.54102C79.3557 8.54102 80.1593 8.87585 80.8092 9.54443C81.4591 10.213 81.7841 11.0254 81.7841 11.9827C81.7841 12.9455 81.4602 13.7601 80.8136 14.4254ZM76.6089 13.8732C77.0963 14.3672 77.6925 14.6131 78.3984 14.6131C79.1043 14.6131 79.7015 14.3661 80.1878 13.8732C80.6753 13.3791 80.9201 12.749 80.9201 11.9827C80.9201 11.2164 80.6753 10.5863 80.1878 10.0922C79.7015 9.59822 79.1043 9.35231 78.3984 9.35231C77.6925 9.35231 77.0963 9.59932 76.6089 10.0922C76.1226 10.5863 75.8778 11.2164 75.8778 11.9827C75.8778 12.749 76.1226 13.3791 76.6089 13.8732Z" fill="white"/>
<path d="M82.9719 15.2762V8.68923H84.0017L87.203 13.8128H87.2392L87.203 12.5437V8.68923H88.0494V15.2762H87.1656L83.8162 9.90343H83.7799L83.8162 11.1725V15.2762H82.9719Z" fill="white"/>
<path d="M52.0606 12.2494C52.0606 13.1694 51.7883 13.9016 51.2427 14.4484C50.6235 15.0983 49.8155 15.4232 48.8231 15.4232C47.8724 15.4232 47.0633 15.0939 46.3991 14.4352C45.7338 13.7754 45.4011 12.9586 45.4011 11.9837C45.4011 11.0078 45.7338 10.191 46.3991 9.5323C47.0633 8.87251 47.8724 8.54316 48.8231 8.54316C49.2951 8.54316 49.7463 8.63538 50.1745 8.81871C50.6037 9.00315 50.9474 9.24796 51.2043 9.55426L50.6257 10.1339C50.1899 9.61244 49.5893 9.35226 48.822 9.35226C48.1281 9.35226 47.5287 9.59598 47.0226 10.0834C46.5165 10.5708 46.264 11.2043 46.264 11.9826C46.264 12.761 46.5165 13.3945 47.0226 13.8819C47.5287 14.3693 48.1281 14.613 48.822 14.613C49.5575 14.613 50.1712 14.3682 50.6619 13.8775C50.9803 13.558 51.1647 13.1134 51.2141 12.5436H48.822V11.7521H52.0134C52.0463 11.9245 52.0606 12.0902 52.0606 12.2494Z" stroke="white" stroke-width="0.219565" stroke-miterlimit="10"/>
<path d="M57.1216 9.49833H54.1224V11.5864H56.8274V12.3779H54.1224V14.466H57.1216V15.2762H53.276V8.68923H57.1216V9.49833Z" stroke="white" stroke-width="0.219565" stroke-miterlimit="10"/>
<path d="M60.6905 15.2762H59.8441V9.49833H58.0042V8.68923H62.5305V9.49833H60.6905V15.2762Z" stroke="white" stroke-width="0.219565" stroke-miterlimit="10"/>
<path d="M65.8053 15.2762V8.68923H66.6517V15.2762H65.8053Z" stroke="white" stroke-width="0.219565" stroke-miterlimit="10"/>
<path d="M70.4053 15.2762H69.5589V9.49833H67.719V8.68923H72.2453V9.49833H70.4053V15.2762Z" stroke="white" stroke-width="0.219565" stroke-miterlimit="10"/>
<path d="M80.8136 14.4254C80.1659 15.0906 79.3612 15.4233 78.3984 15.4233C77.4356 15.4233 76.6309 15.0906 75.9842 14.4254C75.3365 13.7601 75.0138 12.9455 75.0138 11.9827C75.0138 11.0199 75.3365 10.2053 75.9842 9.54004C76.6309 8.87475 77.4356 8.54102 78.3984 8.54102C79.3557 8.54102 80.1593 8.87585 80.8092 9.54443C81.4591 10.213 81.7841 11.0254 81.7841 11.9827C81.7841 12.9455 81.4602 13.7601 80.8136 14.4254ZM76.6089 13.8732C77.0963 14.3672 77.6925 14.6131 78.3984 14.6131C79.1043 14.6131 79.7015 14.3661 80.1878 13.8732C80.6753 13.3791 80.9201 12.749 80.9201 11.9827C80.9201 11.2164 80.6753 10.5863 80.1878 10.0922C79.7015 9.59822 79.1043 9.35231 78.3984 9.35231C77.6925 9.35231 77.0963 9.59932 76.6089 10.0922C76.1226 10.5863 75.8778 11.2164 75.8778 11.9827C75.8778 12.749 76.1226 13.3791 76.6089 13.8732Z" stroke="white" stroke-width="0.219565" stroke-miterlimit="10"/>
<path d="M82.9719 15.2762V8.68923H84.0017L87.203 13.8128H87.2392L87.203 12.5437V8.68923H88.0494V15.2762H87.1656L83.8162 9.90343H83.7799L83.8162 11.1725V15.2762H82.9719Z" stroke="white" stroke-width="0.219565" stroke-miterlimit="10"/>
<g filter="url(#filter0_ii_4704_1113)">
<path d="M11.4607 9.27741C11.1412 9.61554 10.9524 10.1403 10.9524 10.8199V35.0994C10.9524 35.78 11.1412 36.3037 11.4607 36.6418L11.5419 36.7209L25.1429 23.1199V22.9596V22.7993L11.5419 9.19727L11.4607 9.27741Z" fill="url(#paint0_linear_4704_1113)"/>
<path d="M29.6758 27.6553L25.1429 23.1202V22.9599V22.7996L29.6769 18.2656L29.779 18.3238L35.1507 21.3758C36.6843 22.2474 36.6843 23.6735 35.1507 24.5463L29.779 27.5982L29.6758 27.6553Z" fill="url(#paint1_linear_4704_1113)"/>
<g filter="url(#filter1_i_4704_1113)">
<path d="M29.779 27.5962L25.1418 22.959L11.4607 36.6412C11.9657 37.1769 12.8011 37.2428 13.742 36.7093L29.779 27.5962Z" fill="url(#paint2_linear_4704_1113)"/>
</g>
<path d="M29.779 18.3227L13.742 9.21075C12.8011 8.67611 11.9657 8.74308 11.4607 9.27881L25.1429 22.961L29.779 18.3227Z" fill="url(#paint3_linear_4704_1113)"/>
</g>
<rect x="172.814" y="0.595788" width="130.641" height="42.8152" rx="7.13587" fill="white"/>
<rect x="172.814" y="0.595788" width="130.641" height="42.8152" rx="7.13587" stroke="black" stroke-width="1.09783"/>
<path d="M261.767 21.1251V23.6403H260.19V25.2897H261.767V30.8941C261.767 32.8077 262.632 33.5732 264.81 33.5732C265.193 33.5732 265.558 33.5277 265.877 33.473V31.8418C265.603 31.8691 265.43 31.8874 265.129 31.8874C264.154 31.8874 263.726 31.4317 263.726 30.3929V25.2897H265.877V23.6403H263.726V21.1251H261.767Z" fill="black"/>
<path d="M271.425 33.7099C274.323 33.7099 276.1 31.7689 276.1 28.5521C276.1 25.3535 274.314 23.4033 271.425 23.4033C268.527 23.4033 266.741 25.3535 266.741 28.5521C266.741 31.7689 268.518 33.7099 271.425 33.7099ZM271.425 31.9694C269.721 31.9694 268.764 30.7209 268.764 28.5521C268.764 26.4014 269.721 25.1439 271.425 25.1439C273.12 25.1439 274.086 26.4014 274.086 28.5521C274.086 30.7118 273.12 31.9694 271.425 31.9694Z" fill="black"/>
<path d="M277.62 33.5185H279.579V27.659C279.579 26.2647 280.627 25.3261 282.113 25.3261C282.459 25.3261 283.042 25.3899 283.206 25.4446V23.5127C282.997 23.458 282.623 23.4307 282.331 23.4307C281.037 23.4307 279.935 24.1415 279.652 25.1165H279.506V23.5947H277.62V33.5185Z" fill="black"/>
<path d="M288.071 25.071C289.52 25.071 290.468 26.0825 290.513 27.6408H285.501C285.611 26.0916 286.622 25.071 288.071 25.071ZM290.504 30.8394C290.14 31.614 289.329 32.0423 288.144 32.0423C286.577 32.0423 285.565 30.9396 285.501 29.1991V29.0897H292.509V28.4063C292.509 25.2897 290.841 23.4033 288.08 23.4033C285.283 23.4033 283.506 25.4173 283.506 28.5885C283.506 31.7598 285.246 33.7099 288.089 33.7099C290.358 33.7099 291.944 32.6164 292.391 30.8394H290.504Z" fill="black"/>
<path d="M248.918 29.8538C249.069 32.2907 251.1 33.8491 254.123 33.8491C257.353 33.8491 259.374 32.2151 259.374 29.6082C259.374 27.5586 258.222 26.4252 255.426 25.7735L253.924 25.4052C252.148 24.9896 251.431 24.4323 251.431 23.4594C251.431 22.2316 252.545 21.4287 254.217 21.4287C255.804 21.4287 256.899 22.2127 257.098 23.4689H259.157C259.034 21.1737 257.013 19.5586 254.245 19.5586C251.27 19.5586 249.287 21.1737 249.287 23.6011C249.287 25.6035 250.411 26.7936 252.876 27.3697L254.633 27.7948C256.437 28.2198 257.23 28.8432 257.23 29.8822C257.23 31.0911 255.983 31.9695 254.283 31.9695C252.46 31.9695 251.195 31.1478 251.015 29.8538H248.918Z" fill="black"/>
<path d="M228.622 23.4307C227.274 23.4307 226.107 24.105 225.506 25.235H225.36V23.5947H223.474V36.8174H225.433V32.0149H225.588C226.107 33.0629 227.228 33.6826 228.641 33.6826C231.147 33.6826 232.741 31.7051 232.741 28.5521C232.741 25.399 231.147 23.4307 228.622 23.4307ZM228.066 31.9238C226.426 31.9238 225.396 30.6298 225.396 28.5612C225.396 26.4835 226.426 25.1894 228.076 25.1894C229.734 25.1894 230.727 26.4561 230.727 28.5521C230.727 30.6571 229.734 31.9238 228.066 31.9238Z" fill="black"/>
<path d="M239.597 23.4307C238.248 23.4307 237.082 24.105 236.481 25.235H236.335V23.5947H234.448V36.8174H236.408V32.0149H236.563C237.082 33.0629 238.203 33.6826 239.615 33.6826C242.121 33.6826 243.716 31.7051 243.716 28.5521C243.716 25.399 242.121 23.4307 239.597 23.4307ZM239.041 31.9238C237.401 31.9238 236.371 30.6298 236.371 28.5612C236.371 26.4835 237.401 25.1894 239.05 25.1894C240.709 25.1894 241.702 26.4561 241.702 28.5521C241.702 30.6571 240.709 31.9238 239.041 31.9238Z" fill="black"/>
<path d="M219.958 33.5185H222.206L217.285 19.8892H215.009L210.088 33.5185H212.261L213.517 29.901H218.712L219.958 33.5185ZM216.039 22.3638H216.199L218.173 28.1254H214.055L216.039 22.3638Z" fill="black"/>
<path d="M211.404 9.61061V16.1855H213.778C215.737 16.1855 216.872 14.9781 216.872 12.8776C216.872 10.8089 215.728 9.61061 213.778 9.61061H211.404ZM212.425 10.5401H213.664C215.027 10.5401 215.833 11.4058 215.833 12.8912C215.833 14.3994 215.04 15.256 213.664 15.256H212.425V10.5401Z" fill="black"/>
<path d="M220.347 16.2812C221.796 16.2812 222.684 15.3107 222.684 13.7023C222.684 12.103 221.791 11.1279 220.347 11.1279C218.898 11.1279 218.005 12.103 218.005 13.7023C218.005 15.3107 218.893 16.2812 220.347 16.2812ZM220.347 15.4109C219.495 15.4109 219.016 14.7867 219.016 13.7023C219.016 12.627 219.495 11.9982 220.347 11.9982C221.194 11.9982 221.677 12.627 221.677 13.7023C221.677 14.7821 221.194 15.4109 220.347 15.4109Z" fill="black"/>
<path d="M230.25 11.2236H229.271L228.387 15.01H228.309L227.289 11.2236H226.35L225.33 15.01H225.257L224.368 11.2236H223.375L224.742 16.1855H225.749L226.769 12.5313H226.847L227.872 16.1855H228.888L230.25 11.2236Z" fill="black"/>
<path d="M231.379 16.1855H232.358V13.2831C232.358 12.5085 232.818 12.0255 233.543 12.0255C234.267 12.0255 234.614 12.4219 234.614 13.2193V16.1855H235.593V12.9732C235.593 11.7931 234.983 11.1279 233.876 11.1279C233.128 11.1279 232.636 11.4605 232.395 12.0118H232.322V11.2236H231.379V16.1855Z" fill="black"/>
<path d="M237.136 16.1855H238.116V9.28711H237.136V16.1855Z" fill="black"/>
<path d="M241.8 16.2812C243.249 16.2812 244.137 15.3107 244.137 13.7023C244.137 12.103 243.244 11.1279 241.8 11.1279C240.351 11.1279 239.458 12.103 239.458 13.7023C239.458 15.3107 240.347 16.2812 241.8 16.2812ZM241.8 15.4109C240.948 15.4109 240.47 14.7867 240.47 13.7023C240.47 12.627 240.948 11.9982 241.8 11.9982C242.648 11.9982 243.13 12.627 243.13 13.7023C243.13 14.7821 242.648 15.4109 241.8 15.4109Z" fill="black"/>
<path d="M247.056 15.4428C246.523 15.4428 246.136 15.1831 246.136 14.7366C246.136 14.2992 246.446 14.0668 247.129 14.0212L248.341 13.9438V14.3584C248.341 14.9735 247.794 15.4428 247.056 15.4428ZM246.806 16.2675C247.457 16.2675 247.999 15.985 248.296 15.4884H248.373V16.1855H249.316V12.7955C249.316 11.7476 248.615 11.1279 247.371 11.1279C246.245 11.1279 245.443 11.6747 245.343 12.5267H246.291C246.4 12.1759 246.778 11.9754 247.325 11.9754C247.995 11.9754 248.341 12.2716 248.341 12.7955V13.2238L246.997 13.3013C245.817 13.3742 245.152 13.8891 245.152 14.7821C245.152 15.6889 245.849 16.2675 246.806 16.2675Z" fill="black"/>
<path d="M252.641 16.2675C253.324 16.2675 253.903 15.944 254.199 15.4018H254.276V16.1855H255.215V9.28711H254.235V12.0118H254.162C253.894 11.4651 253.32 11.1416 252.641 11.1416C251.388 11.1416 250.581 12.1349 250.581 13.7023C250.581 15.2742 251.379 16.2675 252.641 16.2675ZM252.919 12.021C253.739 12.021 254.254 12.6725 254.254 13.7068C254.254 14.7457 253.743 15.3881 252.919 15.3881C252.089 15.3881 251.593 14.7548 251.593 13.7023C251.593 12.6589 252.094 12.021 252.919 12.021Z" fill="black"/>
<path d="M261.568 16.2812C263.016 16.2812 263.905 15.3107 263.905 13.7023C263.905 12.103 263.012 11.1279 261.568 11.1279C260.119 11.1279 259.226 12.103 259.226 13.7023C259.226 15.3107 260.114 16.2812 261.568 16.2812ZM261.568 15.4109C260.715 15.4109 260.237 14.7867 260.237 13.7023C260.237 12.627 260.715 11.9982 261.568 11.9982C262.415 11.9982 262.898 12.627 262.898 13.7023C262.898 14.7821 262.415 15.4109 261.568 15.4109Z" fill="black"/>
<path d="M265.202 16.1855H266.181V13.2831C266.181 12.5085 266.642 12.0255 267.366 12.0255C268.09 12.0255 268.437 12.4219 268.437 13.2193V16.1855H269.416V12.9732C269.416 11.7931 268.806 11.1279 267.699 11.1279C266.951 11.1279 266.459 11.4605 266.218 12.0118H266.145V11.2236H265.202V16.1855Z" fill="black"/>
<path d="M273.928 9.9888V11.2464H273.14V12.0711H273.928V14.8733C273.928 15.8301 274.361 16.2128 275.45 16.2128C275.641 16.2128 275.824 16.1901 275.983 16.1627V15.3471C275.846 15.3608 275.76 15.3699 275.609 15.3699C275.122 15.3699 274.908 15.1421 274.908 14.6227V12.0711H275.983V11.2464H274.908V9.9888H273.928Z" fill="black"/>
<path d="M277.298 16.1855H278.278V13.2876C278.278 12.5358 278.724 12.0301 279.526 12.0301C280.219 12.0301 280.588 12.431 280.588 13.2238V16.1855H281.567V12.9824C281.567 11.8022 280.916 11.1325 279.859 11.1325C279.112 11.1325 278.588 11.4651 278.346 12.021H278.269V9.28711H277.298V16.1855Z" fill="black"/>
<path d="M285.101 11.9617C285.826 11.9617 286.3 12.4675 286.323 13.2466H283.816C283.871 12.472 284.377 11.9617 285.101 11.9617ZM286.318 14.8459C286.136 15.2332 285.73 15.4474 285.138 15.4474C284.354 15.4474 283.848 14.896 283.816 14.0258V13.9711H287.32V13.6294C287.32 12.0711 286.487 11.1279 285.106 11.1279C283.707 11.1279 282.819 12.1349 282.819 13.7205C282.819 15.3061 283.689 16.2812 285.11 16.2812C286.245 16.2812 287.038 15.7344 287.261 14.8459H286.318Z" fill="black"/>
<path d="M199.458 22.3343C199.481 20.4889 200.472 18.7427 202.045 17.7761C201.053 16.3595 199.391 15.4614 197.663 15.4073C195.82 15.2138 194.032 16.5104 193.093 16.5104C192.135 16.5104 190.689 15.4265 189.131 15.4586C187.101 15.5242 185.209 16.6784 184.221 18.4533C182.098 22.1293 183.681 27.5317 185.715 30.5031C186.733 31.9581 187.922 33.5834 189.478 33.5258C191.001 33.4626 191.57 32.5548 193.408 32.5548C195.229 32.5548 195.762 33.5258 197.35 33.4891C198.984 33.4626 200.014 32.0277 200.995 30.5589C201.727 29.5221 202.289 28.3763 202.662 27.1638C200.742 26.3517 199.46 24.4192 199.458 22.3343Z" fill="black"/>
<path d="M196.459 13.4532C197.35 12.3837 197.788 11.009 197.682 9.62109C196.321 9.76405 195.064 10.4146 194.161 11.4431C193.278 12.4479 192.818 13.7984 192.905 15.1333C194.267 15.1473 195.605 14.5144 196.459 13.4532Z" fill="black"/>
<defs>
<filter id="filter0_ii_4704_1113" x="10.9524" y="8.8418" width="25.3485" height="28.2363" filterUnits="userSpaceOnUse" color-interpolation-filters="sRGB">
<feFlood flood-opacity="0" result="BackgroundImageFix"/>
<feBlend mode="normal" in="SourceGraphic" in2="BackgroundImageFix" result="shape"/>
<feColorMatrix in="SourceAlpha" type="matrix" values="0 0 0 0 0 0 0 0 0 0 0 0 0 0 0 0 0 0 127 0" result="hardAlpha"/>
<feOffset dy="-0.164674"/>
<feComposite in2="hardAlpha" operator="arithmetic" k2="-1" k3="1"/>
<feColorMatrix type="matrix" values="0 0 0 0 0 0 0 0 0 0 0 0 0 0 0 0 0 0 0.12 0"/>
<feBlend mode="normal" in2="shape" result="effect1_innerShadow_4704_1113"/>
<feColorMatrix in="SourceAlpha" type="matrix" values="0 0 0 0 0 0 0 0 0 0 0 0 0 0 0 0 0 0 127 0" result="hardAlpha"/>
<feOffset dy="0.164674"/>
<feComposite in2="hardAlpha" operator="arithmetic" k2="-1" k3="1"/>
<feColorMatrix type="matrix" values="0 0 0 0 1 0 0 0 0 1 0 0 0 0 1 0 0 0 0.25 0"/>
<feBlend mode="normal" in2="effect1_innerShadow_4704_1113" result="effect2_innerShadow_4704_1113"/>
</filter>
<filter id="filter1_i_4704_1113" x="11.4607" y="22.959" width="18.3183" height="14.1191" filterUnits="userSpaceOnUse" color-interpolation-filters="sRGB">
<feFlood flood-opacity="0" result="BackgroundImageFix"/>
<feBlend mode="normal" in="SourceGraphic" in2="BackgroundImageFix" result="shape"/>
<feColorMatrix in="SourceAlpha" type="matrix" values="0 0 0 0 0 0 0 0 0 0 0 0 0 0 0 0 0 0 127 0" result="hardAlpha"/>
<feOffset dy="-0.164674"/>
<feComposite in2="hardAlpha" operator="arithmetic" k2="-1" k3="1"/>
<feColorMatrix type="matrix" values="0 0 0 0 0 0 0 0 0 0 0 0 0 0 0 0 0 0 0.08 0"/>
<feBlend mode="normal" in2="shape" result="effect1_innerShadow_4704_1113"/>
</filter>
<linearGradient id="paint0_linear_4704_1113" x1="23.9373" y1="10.563" x2="5.51355" y2="28.9867" gradientUnits="userSpaceOnUse">
<stop stop-color="#00A0FF"/>
<stop offset="0.0066" stop-color="#00A1FF"/>
<stop offset="0.2601" stop-color="#00BEFF"/>
<stop offset="0.5122" stop-color="#00D2FF"/>
<stop offset="0.7604" stop-color="#00DFFF"/>
<stop offset="1" stop-color="#00E3FF"/>
</linearGradient>
<linearGradient id="paint1_linear_4704_1113" x1="37.1471" y1="22.9599" x2="10.5842" y2="22.9599" gradientUnits="userSpaceOnUse">
<stop stop-color="#FFE000"/>
<stop offset="0.4087" stop-color="#FFBD00"/>
<stop offset="0.7754" stop-color="#FFA500"/>
<stop offset="1" stop-color="#FF9C00"/>
</linearGradient>
<linearGradient id="paint2_linear_4704_1113" x1="27.2607" y1="25.4773" x2="2.27585" y2="50.4622" gradientUnits="userSpaceOnUse">
<stop stop-color="#FF3A44"/>
<stop offset="1" stop-color="#C31162"/>
</linearGradient>
<linearGradient id="paint3_linear_4704_1113" x1="8.01506" y1="1.1964" x2="19.1715" y2="12.3528" gradientUnits="userSpaceOnUse">
<stop stop-color="#32A071"/>
<stop offset="0.0685" stop-color="#2DA771"/>
<stop offset="0.4762" stop-color="#15CF74"/>
<stop offset="0.8009" stop-color="#06E775"/>
<stop offset="1" stop-color="#00F076"/>
</linearGradient>
</defs>
</svg>
