<svg width="251" height="251" viewBox="0 0 251 251" fill="none" xmlns="http://www.w3.org/2000/svg">
<path d="M125.57 31.7826C113.258 31.7826 101.067 34.2075 89.6931 38.9188C78.3188 43.6302 67.9839 50.5358 59.2784 59.2413C50.5729 67.9468 43.6673 78.2817 38.956 89.656C34.2446 101.03 31.8197 113.221 31.8197 125.533C31.8197 137.844 34.2446 150.035 38.956 161.409C43.6673 172.783 50.5729 183.118 59.2784 191.824C67.9839 200.529 78.3188 207.435 89.6931 212.146C101.067 216.858 113.258 219.283 125.57 219.283C150.434 219.283 174.279 209.405 191.861 191.824C209.442 174.242 219.32 150.397 219.32 125.533C219.32 100.669 209.442 76.8228 191.861 59.2413C174.279 41.6598 150.434 31.7826 125.57 31.7826ZM10.9863 125.533C10.9863 62.2513 62.2884 10.9492 125.57 10.9492C188.851 10.9492 240.153 62.2513 240.153 125.533C240.153 188.814 188.851 240.116 125.57 240.116C62.2884 240.116 10.9863 188.814 10.9863 125.533ZM125.57 73.4492C111.756 73.4492 98.5087 78.9366 88.7412 88.7041C78.9737 98.4716 73.4863 111.719 73.4863 125.533C73.4863 139.346 78.9737 152.594 88.7412 162.361C98.5087 172.129 111.756 177.616 125.57 177.616C139.383 177.616 152.631 172.129 162.398 162.361C172.166 152.594 177.653 139.346 177.653 125.533C177.653 111.719 172.166 98.4716 162.398 88.7041C152.631 78.9366 139.383 73.4492 125.57 73.4492ZM52.653 125.533C52.653 115.957 54.539 106.475 58.2034 97.6286C61.8679 88.7819 67.2389 80.7436 74.0098 73.9727C80.7807 67.2017 88.819 61.8307 97.6657 58.1663C106.512 54.5019 115.994 52.6159 125.57 52.6159C135.145 52.6159 144.627 54.5019 153.474 58.1663C162.32 61.8307 170.359 67.2017 177.13 73.9727C183.9 80.7436 189.271 88.7819 192.936 97.6286C196.6 106.475 198.486 115.957 198.486 125.533C198.486 144.871 190.804 163.418 177.13 177.092C163.455 190.767 144.908 198.449 125.57 198.449C106.231 198.449 87.6843 190.767 74.0098 177.092C60.3353 163.418 52.653 144.871 52.653 125.533ZM104.736 125.533C104.736 120.007 106.931 114.708 110.838 110.801C114.745 106.894 120.044 104.699 125.57 104.699C131.095 104.699 136.394 106.894 140.301 110.801C144.208 114.708 146.403 120.007 146.403 125.533C146.403 131.058 144.208 136.357 140.301 140.264C136.394 144.171 131.095 146.366 125.57 146.366C120.044 146.366 114.745 144.171 110.838 140.264C106.931 136.357 104.736 131.058 104.736 125.533Z" fill="white"/>
</svg>
